<svg xmlns="http://www.w3.org/2000/svg" version="1.1" xmlnsXlink="http://www.w3.org/1999/xlink" xmlnsSvgjs="http://svgjs.com/svgjs" width="1440" height="560" preserveAspectRatio="none" viewBox="0 0 1440 560"><g mask="url(&quot;#SvgjsMask1002&quot;)" fill="none"><rect width="1440" height="560" x="0" y="0" fill="rgba(146, 215, 211, 1)"></rect><path d="M0,648.034C121.901,665.997,244.963,608.649,344.333,535.793C440.375,465.376,488.051,353.517,544.627,248.723C605.317,136.308,698.245,28.484,686.915,-98.764C675.46,-227.422,567.511,-320.879,485.059,-420.306C400.79,-521.924,327.9,-648.157,201.038,-684.673C74.321,-721.147,-63.733,-674.587,-179.587,-611.616C-282.608,-555.62,-339.711,-448.864,-408.073,-353.598C-470.104,-267.154,-534.027,-183.624,-560.632,-80.607C-589.491,31.136,-619.96,156.454,-566.172,258.562C-512.811,359.859,-379.086,378.204,-284.758,443.093C-186.416,510.743,-118.089,630.633,0,648.034" fill="#5dc4be"></path><path d="M1440 947.2180000000001C1515.837 932.452 1592.213 937.405 1663.686 908.063 1747.211 873.773 1840.535 841.623 1886.5059999999999 763.913 1933.692 684.15 1937.836 580.737 1909.527 492.492 1882.87 409.397 1793.009 369.515 1738.1979999999999 301.61 1680.673 230.34199999999998 1657.987 131.622 1579.777 83.96300000000002 1491.701 30.291000000000054 1384.038 5.253000000000043 1282.612 23.98599999999999 1176.507 43.58299999999997 1083.682 108.495 1011.706 188.88099999999997 938.992 270.091 885.967 370.328 875.363 478.817 864.996 584.876 904.282 687.675 953.7239999999999 782.075 1001.163 872.6510000000001 1055.512 974.748 1152.328 1007.627 1247.024 1039.786 1341.835 966.331 1440 947.2180000000001" fill="#c7eae8"></path></g><defs><mask id="SvgjsMask1002"><rect width="1440" height="560" fill="#ffffff"></rect></mask></defs></svg>