<svg id="Layer_1" data-name="Layer 1" xmlns="http://www.w3.org/2000/svg" viewBox="0 0 500 500"><defs><style>.cls-1{fill:#fff;}</style></defs><title>pagetracer</title><path class="cls-1" d="M69.58,499a15.9,15.9,0,0,1-15.9-15.9V173.68C53.68,78.47,131.14,1,226.36,1a15.9,15.9,0,0,1,15.9,15.9V326.32C242.26,421.53,164.79,499,69.58,499ZM210.46,33.69c-70.22,7.93-125,67.69-125,140V466.31c70.23-7.92,125-67.68,125-140Z"/><path class="cls-1" d="M294.38,334.75a15.9,15.9,0,0,1-15.9-15.9V16.9A15.9,15.9,0,0,1,294.38,1c83.78,0,151.94,68.16,151.94,151.94v29.87C446.32,266.59,378.16,334.75,294.38,334.75Zm15.9-300.9v268A120.32,120.32,0,0,0,414.53,182.81V152.94A120.33,120.33,0,0,0,310.28,33.85Z"/></svg>